<mxfile host="app.diagrams.net" modified="2022-03-06T13:51:05.112Z" agent="5.0 (Windows NT 10.0; Win64; x64) AppleWebKit/537.36 (KHTML, like Gecko) Chrome/99.0.4844.51 Safari/537.36" etag="roHZhvfdt25ViZwml544" version="16.6.6" type="github">
  <diagram id="8CEDam4Kz6K1YHV5BsIE" name="Page-1">
    <mxGraphModel dx="3519" dy="1716" grid="1" gridSize="10" guides="1" tooltips="1" connect="1" arrows="1" fold="1" page="1" pageScale="1" pageWidth="827" pageHeight="1169" math="0" shadow="0">
      <root>
        <mxCell id="0" />
        <mxCell id="1" parent="0" />
        <mxCell id="9tluoSg7g2_nUF1wfxTb-10" style="edgeStyle=orthogonalEdgeStyle;rounded=0;orthogonalLoop=1;jettySize=auto;html=1;exitX=1;exitY=0.5;exitDx=0;exitDy=0;fontSize=14;" edge="1" parent="1">
          <mxGeometry relative="1" as="geometry">
            <mxPoint x="-1560" y="244" as="targetPoint" />
            <mxPoint x="-1700" y="244" as="sourcePoint" />
          </mxGeometry>
        </mxCell>
        <mxCell id="h-qV13v7lLTFH_YKPDdd-1" value="&lt;br&gt;Parser.js&lt;br&gt;&lt;br&gt;step 1&lt;br&gt;&lt;br&gt;var errorList = IListConverter.ListConverter();&lt;br&gt;&lt;br&gt;var filterError = ILogFilter.FilterError(errorList)&lt;br&gt;&lt;br&gt;&lt;br&gt;var parseErrors =&amp;nbsp; IErrorParser.ParseError()&lt;br&gt;&lt;br&gt;&lt;br&gt;var outPutFile =&amp;nbsp;&lt;br&gt;IFileconverter.FileConverter()" style="rounded=1;whiteSpace=wrap;html=1;" parent="1" vertex="1">
          <mxGeometry x="-1890" y="90" width="190" height="300" as="geometry" />
        </mxCell>
        <mxCell id="h-qV13v7lLTFH_YKPDdd-3" value="&lt;font style=&quot;font-size: 29px&quot;&gt;V1&lt;/font&gt;" style="ellipse;whiteSpace=wrap;html=1;fillColor=#dae8fc;strokeColor=#6c8ebf;" parent="1" vertex="1">
          <mxGeometry x="-1890" y="-50" width="100" height="80" as="geometry" />
        </mxCell>
        <mxCell id="h-qV13v7lLTFH_YKPDdd-4" value="IErrorParser" style="swimlane;fontSize=14;startSize=23;" parent="1" vertex="1">
          <mxGeometry x="-1550" y="-240" width="140" height="110" as="geometry">
            <mxRectangle x="-1470" y="180" width="50" height="23" as="alternateBounds" />
          </mxGeometry>
        </mxCell>
        <mxCell id="h-qV13v7lLTFH_YKPDdd-7" value="ParseError()" style="text;html=1;align=center;verticalAlign=middle;resizable=0;points=[];autosize=1;strokeColor=none;fillColor=none;fontSize=14;" parent="h-qV13v7lLTFH_YKPDdd-4" vertex="1">
          <mxGeometry x="15" y="42" width="90" height="20" as="geometry" />
        </mxCell>
        <mxCell id="h-qV13v7lLTFH_YKPDdd-6" value="" style="endArrow=classic;html=1;rounded=0;fontSize=14;entryX=0;entryY=0.75;entryDx=0;entryDy=0;exitX=1;exitY=0.75;exitDx=0;exitDy=0;" parent="1" edge="1" target="h-qV13v7lLTFH_YKPDdd-22" source="h-qV13v7lLTFH_YKPDdd-1">
          <mxGeometry width="50" height="50" relative="1" as="geometry">
            <mxPoint x="-1700" y="315" as="sourcePoint" />
            <mxPoint x="-1500" y="300" as="targetPoint" />
            <Array as="points">
              <mxPoint x="-1650" y="315" />
              <mxPoint x="-1650" y="478" />
            </Array>
          </mxGeometry>
        </mxCell>
        <mxCell id="h-qV13v7lLTFH_YKPDdd-11" value="ErrorParser" style="swimlane;fontSize=14;startSize=23;" parent="1" vertex="1">
          <mxGeometry x="-1140" y="-430" width="210" height="110" as="geometry">
            <mxRectangle x="-1470" y="180" width="50" height="23" as="alternateBounds" />
          </mxGeometry>
        </mxCell>
        <mxCell id="h-qV13v7lLTFH_YKPDdd-12" value="ParseError()" style="text;html=1;align=center;verticalAlign=middle;resizable=0;points=[];autosize=1;strokeColor=none;fillColor=none;fontSize=14;" parent="h-qV13v7lLTFH_YKPDdd-11" vertex="1">
          <mxGeometry x="45" y="50" width="90" height="20" as="geometry" />
        </mxCell>
        <mxCell id="h-qV13v7lLTFH_YKPDdd-13" value=" SqlErrorParser" style="swimlane;fontSize=14;startSize=23;" parent="1" vertex="1">
          <mxGeometry x="-1140" y="-280" width="210" height="110" as="geometry">
            <mxRectangle x="-1470" y="180" width="50" height="23" as="alternateBounds" />
          </mxGeometry>
        </mxCell>
        <mxCell id="h-qV13v7lLTFH_YKPDdd-18" value="ParseError()" style="text;html=1;align=center;verticalAlign=middle;resizable=0;points=[];autosize=1;strokeColor=none;fillColor=none;fontSize=14;" parent="h-qV13v7lLTFH_YKPDdd-13" vertex="1">
          <mxGeometry x="55" y="50" width="90" height="20" as="geometry" />
        </mxCell>
        <mxCell id="h-qV13v7lLTFH_YKPDdd-15" value="    HttpPerformanceErrorParser" style="swimlane;fontSize=14;startSize=23;" parent="1" vertex="1">
          <mxGeometry x="-1140" y="-150" width="210" height="110" as="geometry">
            <mxRectangle x="-1470" y="180" width="50" height="23" as="alternateBounds" />
          </mxGeometry>
        </mxCell>
        <mxCell id="h-qV13v7lLTFH_YKPDdd-19" value="ParseError()" style="text;html=1;align=center;verticalAlign=middle;resizable=0;points=[];autosize=1;strokeColor=none;fillColor=none;fontSize=14;" parent="h-qV13v7lLTFH_YKPDdd-15" vertex="1">
          <mxGeometry x="55" y="50" width="90" height="20" as="geometry" />
        </mxCell>
        <mxCell id="h-qV13v7lLTFH_YKPDdd-22" value="ILogFilter" style="swimlane;fontSize=14;startSize=23;" parent="1" vertex="1">
          <mxGeometry x="-1520" y="395" width="140" height="110" as="geometry">
            <mxRectangle x="-1470" y="180" width="50" height="23" as="alternateBounds" />
          </mxGeometry>
        </mxCell>
        <mxCell id="h-qV13v7lLTFH_YKPDdd-23" value="FilterError(&lt;span style=&quot;font-size: 12px&quot;&gt;errorList&lt;/span&gt;)" style="text;html=1;align=center;verticalAlign=middle;resizable=0;points=[];autosize=1;strokeColor=none;fillColor=none;fontSize=14;" parent="h-qV13v7lLTFH_YKPDdd-22" vertex="1">
          <mxGeometry x="5" y="45" width="130" height="20" as="geometry" />
        </mxCell>
        <mxCell id="h-qV13v7lLTFH_YKPDdd-25" value="LogFilter" style="swimlane;fontSize=14;startSize=23;" parent="1" vertex="1">
          <mxGeometry x="-1520" y="585" width="140" height="110" as="geometry">
            <mxRectangle x="-1470" y="180" width="50" height="23" as="alternateBounds" />
          </mxGeometry>
        </mxCell>
        <mxCell id="h-qV13v7lLTFH_YKPDdd-26" value="FilterError(&lt;span style=&quot;font-size: 12px&quot;&gt;errorList&lt;/span&gt;)" style="text;html=1;align=center;verticalAlign=middle;resizable=0;points=[];autosize=1;strokeColor=none;fillColor=none;fontSize=14;" parent="h-qV13v7lLTFH_YKPDdd-25" vertex="1">
          <mxGeometry x="5" y="45" width="130" height="20" as="geometry" />
        </mxCell>
        <mxCell id="h-qV13v7lLTFH_YKPDdd-27" value="" style="endArrow=classic;html=1;rounded=0;fontSize=14;exitX=0.5;exitY=0;exitDx=0;exitDy=0;entryX=0.5;entryY=1;entryDx=0;entryDy=0;" parent="1" source="h-qV13v7lLTFH_YKPDdd-25" target="h-qV13v7lLTFH_YKPDdd-22" edge="1">
          <mxGeometry width="50" height="50" relative="1" as="geometry">
            <mxPoint x="-1200" y="490" as="sourcePoint" />
            <mxPoint x="-1150" y="440" as="targetPoint" />
          </mxGeometry>
        </mxCell>
        <mxCell id="9tluoSg7g2_nUF1wfxTb-8" value="   IListConverter" style="swimlane;fontSize=14;startSize=23;" vertex="1" parent="1">
          <mxGeometry x="-1560" y="190" width="160" height="110" as="geometry">
            <mxRectangle x="-1470" y="180" width="50" height="23" as="alternateBounds" />
          </mxGeometry>
        </mxCell>
        <mxCell id="9tluoSg7g2_nUF1wfxTb-9" value="ListConveter()" style="text;html=1;align=center;verticalAlign=middle;resizable=0;points=[];autosize=1;strokeColor=none;fillColor=none;fontSize=14;" vertex="1" parent="9tluoSg7g2_nUF1wfxTb-8">
          <mxGeometry x="30" y="40" width="100" height="20" as="geometry" />
        </mxCell>
        <mxCell id="9tluoSg7g2_nUF1wfxTb-11" value="" style="endArrow=classic;html=1;rounded=0;fontSize=14;exitX=0.75;exitY=0;exitDx=0;exitDy=0;entryX=0;entryY=0.5;entryDx=0;entryDy=0;" edge="1" parent="1" source="h-qV13v7lLTFH_YKPDdd-1" target="h-qV13v7lLTFH_YKPDdd-4">
          <mxGeometry width="50" height="50" relative="1" as="geometry">
            <mxPoint x="-1410" y="60" as="sourcePoint" />
            <mxPoint x="-1360" y="10" as="targetPoint" />
            <Array as="points">
              <mxPoint x="-1747" y="70" />
              <mxPoint x="-1650" y="70" />
              <mxPoint x="-1650" y="-185" />
            </Array>
          </mxGeometry>
        </mxCell>
        <mxCell id="9tluoSg7g2_nUF1wfxTb-12" value="" style="endArrow=classic;html=1;rounded=0;fontSize=14;exitX=1;exitY=0.5;exitDx=0;exitDy=0;entryX=0;entryY=0.5;entryDx=0;entryDy=0;" edge="1" parent="1" source="h-qV13v7lLTFH_YKPDdd-4" target="h-qV13v7lLTFH_YKPDdd-11">
          <mxGeometry width="50" height="50" relative="1" as="geometry">
            <mxPoint x="-1410" y="-40" as="sourcePoint" />
            <mxPoint x="-1360" y="-90" as="targetPoint" />
          </mxGeometry>
        </mxCell>
        <mxCell id="9tluoSg7g2_nUF1wfxTb-13" value="" style="endArrow=classic;html=1;rounded=0;fontSize=14;exitX=1;exitY=0.5;exitDx=0;exitDy=0;" edge="1" parent="1" source="h-qV13v7lLTFH_YKPDdd-4">
          <mxGeometry width="50" height="50" relative="1" as="geometry">
            <mxPoint x="-1410" y="-240" as="sourcePoint" />
            <mxPoint x="-1140" y="-185" as="targetPoint" />
          </mxGeometry>
        </mxCell>
        <mxCell id="9tluoSg7g2_nUF1wfxTb-14" value="" style="endArrow=classic;html=1;rounded=0;fontSize=14;exitX=1;exitY=0.5;exitDx=0;exitDy=0;" edge="1" parent="1" source="h-qV13v7lLTFH_YKPDdd-4">
          <mxGeometry width="50" height="50" relative="1" as="geometry">
            <mxPoint x="-1410" y="-190" as="sourcePoint" />
            <mxPoint x="-1140" y="-80" as="targetPoint" />
          </mxGeometry>
        </mxCell>
        <mxCell id="9tluoSg7g2_nUF1wfxTb-15" value="   FileToListConverter" style="swimlane;fontSize=14;startSize=23;" vertex="1" parent="1">
          <mxGeometry x="-1230" y="180" width="160" height="110" as="geometry">
            <mxRectangle x="-1470" y="180" width="50" height="23" as="alternateBounds" />
          </mxGeometry>
        </mxCell>
        <mxCell id="9tluoSg7g2_nUF1wfxTb-16" value="ListConveter()" style="text;html=1;align=center;verticalAlign=middle;resizable=0;points=[];autosize=1;strokeColor=none;fillColor=none;fontSize=14;" vertex="1" parent="9tluoSg7g2_nUF1wfxTb-15">
          <mxGeometry x="30" y="40" width="100" height="20" as="geometry" />
        </mxCell>
        <mxCell id="9tluoSg7g2_nUF1wfxTb-18" value="" style="endArrow=classic;html=1;rounded=0;fontSize=14;entryX=0;entryY=0.5;entryDx=0;entryDy=0;" edge="1" parent="1" target="9tluoSg7g2_nUF1wfxTb-15">
          <mxGeometry width="50" height="50" relative="1" as="geometry">
            <mxPoint x="-1400" y="235" as="sourcePoint" />
            <mxPoint x="-1360" y="110" as="targetPoint" />
          </mxGeometry>
        </mxCell>
        <mxCell id="9tluoSg7g2_nUF1wfxTb-19" value="   IFileConverter" style="swimlane;fontSize=14;startSize=23;" vertex="1" parent="1">
          <mxGeometry x="-1559" y="51" width="160" height="110" as="geometry">
            <mxRectangle x="-1470" y="180" width="50" height="23" as="alternateBounds" />
          </mxGeometry>
        </mxCell>
        <mxCell id="9tluoSg7g2_nUF1wfxTb-20" value="FileConveter()" style="text;html=1;align=center;verticalAlign=middle;resizable=0;points=[];autosize=1;strokeColor=none;fillColor=none;fontSize=14;" vertex="1" parent="9tluoSg7g2_nUF1wfxTb-19">
          <mxGeometry x="30" y="40" width="100" height="20" as="geometry" />
        </mxCell>
        <mxCell id="9tluoSg7g2_nUF1wfxTb-21" value="   ToJSONConverter" style="swimlane;fontSize=14;startSize=23;" vertex="1" parent="1">
          <mxGeometry x="-1229" y="41" width="160" height="110" as="geometry">
            <mxRectangle x="-1470" y="180" width="50" height="23" as="alternateBounds" />
          </mxGeometry>
        </mxCell>
        <mxCell id="9tluoSg7g2_nUF1wfxTb-24" value="FileConveter()" style="text;html=1;align=center;verticalAlign=middle;resizable=0;points=[];autosize=1;strokeColor=none;fillColor=none;fontSize=14;" vertex="1" parent="9tluoSg7g2_nUF1wfxTb-21">
          <mxGeometry x="30" y="45" width="100" height="20" as="geometry" />
        </mxCell>
        <mxCell id="9tluoSg7g2_nUF1wfxTb-23" value="" style="endArrow=classic;html=1;rounded=0;fontSize=14;entryX=0;entryY=0.5;entryDx=0;entryDy=0;" edge="1" parent="1" target="9tluoSg7g2_nUF1wfxTb-21">
          <mxGeometry width="50" height="50" relative="1" as="geometry">
            <mxPoint x="-1399" y="96" as="sourcePoint" />
            <mxPoint x="-1359" y="-29" as="targetPoint" />
          </mxGeometry>
        </mxCell>
        <mxCell id="9tluoSg7g2_nUF1wfxTb-25" value="" style="endArrow=classic;html=1;rounded=0;fontSize=14;" edge="1" parent="1">
          <mxGeometry width="50" height="50" relative="1" as="geometry">
            <mxPoint x="-1700" y="160" as="sourcePoint" />
            <mxPoint x="-1560" y="120" as="targetPoint" />
            <Array as="points">
              <mxPoint x="-1650" y="160" />
              <mxPoint x="-1650" y="120" />
            </Array>
          </mxGeometry>
        </mxCell>
      </root>
    </mxGraphModel>
  </diagram>
</mxfile>
